<svg xmlns="http://www.w3.org/2000/svg" viewBox="0 0 416.04 106.18"><defs><radialGradient id="a" cx="9.87" cy="101.82" r="122.43" fx="9.87" fy="101.82" gradientTransform="matrix(1 0 0 -1 0 108.8)" gradientUnits="userSpaceOnUse"><stop offset="0" stop-color="#fff"/><stop offset="1" stop-color="#e5def9"/></radialGradient></defs><path fill="#171c4c" d="M131.38 44.13q-.63 0-.63-.63v-3.93q0-.63.63-.63h5.35v-9.75c0-.47.18-.71.55-.71h.39c3.25 0 4.88 1.84 4.88 5.5v4.95h6.06c.37 0 .55.21.55.63v3.93c0 .42-.18.63-.55.63h-6.06v23.04c0 .47-.21.71-.63.71h-4.64c-.37 0-.55-.24-.55-.71V44.12h-5.35ZM170.14 38.23c3.35 0 6.08 1 8.18 2.99 2.41 2.25 3.62 5.45 3.62 9.59v16.36c0 .47-.21.71-.63.71h-4.64c-.42 0-.63-.24-.63-.71V51.84c0-2.62-.63-4.64-1.89-6.05s-3.04-2.12-5.35-2.12c-5.09 0-7.63 2.86-7.63 8.57v14.94c0 .47-.18.71-.55.71h-4.64c-.42 0-.63-.24-.63-.71V24.86c0-.47.21-.71.63-.71h.39q4.8 0 4.8 5.43v12.9c1.89-2.83 4.88-4.25 8.97-4.25M204.19 63.47c3.2 0 6.16-.97 8.89-2.91.1-.05.24-.16.39-.32.31-.21.55-.32.71-.32.52 0 .79.37.79 1.1 0 1.73-.84 3.3-2.52 4.72-2.2 1.89-5.19 2.83-8.96 2.83s-7.05-1.05-9.67-3.15c-3.36-2.72-5.03-6.74-5.03-12.03 0-4.14 1.1-7.58 3.3-10.3 2.62-3.25 6.11-4.88 10.46-4.88 4.04 0 7.18 1.21 9.44 3.62 2.31 2.41 3.46 5.64 3.46 9.67 0 1.05-.05 2.07-.16 3.07-.11.63-.5.94-1.18.94h-19.5c.58 5.3 3.77 7.94 9.59 7.94Zm5.43-12.42c.1-2.36-.47-4.22-1.73-5.58s-3.07-2.05-5.43-2.05c-2.2 0-3.98.67-5.35 2-1.36 1.34-2.15 3.21-2.36 5.62h14.86ZM236.9 38.31c4.61 0 7.94 1.78 9.99 5.35 2.46-3.56 5.82-5.35 10.06-5.35 3.51 0 6.29 1 8.34 2.99 2.31 2.2 3.46 5.4 3.46 9.59v16.28c0 .47-.21.71-.63.71h-4.56c-.42 0-.63-.24-.63-.71V51.92c0-5.45-2.33-8.18-7-8.18-4.93 0-7.39 2.83-7.39 8.49v14.94c0 .47-.21.71-.63.71h-4.64c-.42 0-.63-.24-.63-.71V51.92c0-5.45-2.31-8.18-6.92-8.18q-7.47 0-7.47 8.49v14.94c0 .47-.18.71-.55.71h-4.64c-.42 0-.63-.24-.63-.71v-27.6q0-.63.63-.63h.39c2.57 0 4.11 1.29 4.64 3.85 1.94-2.99 4.88-4.48 8.81-4.48M291.08 63.47c3.2 0 6.16-.97 8.89-2.91.1-.05.24-.16.39-.32.31-.21.55-.32.71-.32.52 0 .79.37.79 1.1 0 1.73-.84 3.3-2.52 4.72-2.2 1.89-5.19 2.83-8.96 2.83s-7.05-1.05-9.67-3.15c-3.36-2.72-5.03-6.74-5.03-12.03 0-4.14 1.1-7.58 3.3-10.3 2.62-3.25 6.11-4.88 10.46-4.88 4.04 0 7.18 1.21 9.44 3.62 2.31 2.41 3.46 5.64 3.46 9.67 0 1.05-.05 2.07-.16 3.07-.11.63-.5.94-1.18.94h-19.5c.58 5.3 3.77 7.94 9.59 7.94Zm5.43-12.42c.1-2.36-.47-4.22-1.73-5.58s-3.07-2.05-5.43-2.05c-2.2 0-3.99.67-5.35 2-1.36 1.34-2.15 3.21-2.36 5.62h14.86ZM315.15 79.75c0 .47-.18.71-.55.71h-4.64c-.42 0-.63-.24-.63-.71V39.57q0-.63.63-.63h.39c2.46 0 4.01 1.36 4.64 4.09 2.1-3.2 5.29-4.8 9.59-4.8 3.93 0 7.13 1.26 9.59 3.78q4.17 4.17 4.17 11.4c0 4.04-1.02 7.45-3.07 10.22-2.46 3.3-5.9 4.95-10.3 4.95s-7.79-1.52-9.83-4.56v15.73Zm13.99-18.56c2.1-1.73 3.14-4.32 3.14-7.79 0-2.88-.76-5.19-2.28-6.92-1.57-1.78-3.67-2.67-6.29-2.67s-4.77.85-6.29 2.56c-1.52 1.7-2.28 4.05-2.28 7.04 0 3.25.89 5.72 2.67 7.39q2.355 2.28 6.06 2.28c2.04 0 3.8-.63 5.27-1.89M345.34 59.54V24.86c0-.47.21-.71.63-.71h.39q4.8 0 4.8 5.43v29.57c0 2.73 1.02 4.09 3.07 4.09 1.36 0 2.62-.63 3.77-1.89.21-.32.47-.47.79-.47.47 0 .71.34.71 1.02 0 1.89-.66 3.47-1.97 4.76-1.31 1.28-2.94 1.93-4.88 1.93-4.88 0-7.31-3.01-7.31-9.04ZM366.81 65.36c-2.41-2.46-3.62-6.13-3.62-11.01v-14.7c0-.47.21-.71.63-.71h.39q4.8 0 4.8 5.43v10.62c0 2.67.62 4.72 1.85 6.13 1.23 1.42 2.98 2.12 5.23 2.12 4.72 0 7.08-2.67 7.08-8.02V39.65c0-.47.21-.71.63-.71h.39c3.25 0 4.88 1.81 4.88 5.43v10.38c0 4.09-.94 7.34-2.83 9.75q-3.39 4.17-10.14 4.17c-3.99 0-7.08-1.1-9.28-3.3ZM405.81 43.26c-3.09 0-4.64 1.05-4.64 3.15 0 .79.37 1.48 1.1 2.08s2.12 1.3 4.17 2.08c3.83 1.47 6.38 2.79 7.67 3.97 1.28 1.18 1.93 2.79 1.93 4.84q0 3.93-2.52 6.45c-2.04 1.94-4.88 2.91-8.49 2.91-2.83 0-5.28-.73-7.35-2.2s-3.11-3.22-3.11-5.27c0-.89.29-1.34.86-1.34.26 0 .5.13.71.39 2.52 2.25 5.29 3.38 8.34 3.38 3.77 0 5.66-1.26 5.66-3.78q0-1.26-1.14-2.16c-.76-.6-2.14-1.27-4.13-2-3.83-1.47-6.4-2.79-7.71-3.97s-1.97-2.82-1.97-4.91c0-2.46.92-4.48 2.75-6.05 1.99-1.73 4.64-2.6 7.94-2.6 2.52 0 4.74.47 6.68 1.41 1.83.79 2.54 2.2 2.12 4.25l-.24 1.02c-.11.37-.29.55-.55.55-.11 0-.26-.05-.47-.16l-.24-.08c-2.46-1.31-4.93-1.97-7.39-1.97Z"/><path fill="url(#a)" d="M99.6 24.76A25.92 25.92 0 0 0 81.42 6.59c-18.47-5.05-38.18-5.05-56.66-.01C15.92 8.99 9 15.92 6.58 24.75c-5.05 18.48-5.05 38.19 0 56.67a25.92 25.92 0 0 0 18.18 18.17c18.48 5.04 38.19 5.04 56.67 0 8.84-2.41 15.76-9.34 18.18-18.17 5.04-18.48 5.04-38.19 0-56.67"/><path fill="#fff" d="M102.3 24.02c-1.31-4.81-3.87-9.21-7.4-12.74s-7.93-6.09-12.74-7.4C72.72 1.3 62.94 0 53.09 0S33.46 1.31 24.02 3.88c-4.81 1.31-9.21 3.87-12.74 7.4s-6.09 7.93-7.4 12.74C1.31 33.46 0 43.24 0 53.09s1.31 19.64 3.88 29.07c1.31 4.81 3.87 9.21 7.4 12.74s7.93 6.09 12.74 7.4c9.44 2.58 19.22 3.88 29.07 3.88s19.64-1.31 29.07-3.88c4.81-1.31 9.21-3.87 12.74-7.4s6.09-7.93 7.4-12.74c2.58-9.44 3.88-19.22 3.88-29.07s-1.31-19.64-3.88-29.07m-2.7 57.41A25.92 25.92 0 0 1 81.42 99.6c-9.24 2.52-18.79 3.78-28.33 3.78s-19.1-1.26-28.33-3.78A25.93 25.93 0 0 1 6.59 81.43c-5.05-18.48-5.05-38.19-.01-56.67C8.99 15.92 15.92 9 24.75 6.58 33.99 4.06 43.54 2.8 53.08 2.8s19.09 1.26 28.33 3.78c8.84 2.41 15.76 9.34 18.18 18.17 5.04 18.48 5.04 38.19 0 56.67"/><path fill="#ffce7b" d="M54.62 43.13c-6.53 16.13-18.93 26.26-16.93 8.53s18.39-39.99 19.99-32.79c0 0 3.47 8.13-3.07 24.26"/><path fill="#20bec6" d="M92.75 66.86S86.3 84.54 49.02 77.21c0 0 6.14-21.63 21.6-29.68 10.85-5.65 29.2 2.27 22.13 19.33"/><path fill="#171c4c" d="M92 48.05c-1.93-3.45-5.23-6.06-9.3-7.34-4.37-1.38-9.14-1.1-13.77.82-.59.22-5.74 2.32-12.08 9.25-3.81 4.16-7.29 9.24-10.36 15.1-.41.78-.81 1.58-1.2 2.38-3.08-1.4-5.47-3.25-7.16-5.55 4.75-6.24 9.12-14.97 10.76-18.4 2.75-5.75 5.11-11.55 6.63-16.35.65-2.06 2.64-8.32 1.65-11.49-.57-1.82-2.06-2.71-3.89-2.32-4.07.86-9.57 7.45-13.04 12.82-2.34 3.62-4.35 7.53-5.82 11.3-1.7 4.38-2.69 8.54-2.92 12.38-.27 4.47.47 8.42 2.21 11.78-1.55 1.8-2.92 2.99-4.01 3.44-3.42 1.43-6.91.95-10.39-1.43-2.77-1.89-4.48-4.31-4.5-4.34l-1.48 1.03 1.48-1.03-2.95 2.06c.08.12 2.05 2.91 5.32 5.18 4.51 3.13 9.32 3.77 13.91 1.85 1.5-.63 3.08-1.94 4.66-3.65 2 2.46 4.68 4.46 8 5.97-2.63 5.92-4.89 12.52-6.75 19.67l3.49.9c1.83-7.06 4.06-13.54 6.65-19.35 1.65.35 6.96 1.35 13.54 1.48 4.61.1 8.88-.26 12.7-1.06 4.86-1.01 9.01-2.75 12.33-5.15 3.92-2.84 6.52-6.29 7.53-9.97.92-3.38.48-6.93-1.25-10.01ZM36.21 59.23c-.94-2.43-1.31-5.21-1.12-8.35.4-6.53 3.38-14.53 8.17-21.95 2.01-3.12 4.18-5.88 6.28-7.99 2.28-2.29 3.64-2.99 4.23-3.19.15.79.23 3.36-2.05 10.19-2.38 7.14-6.45 16.15-10.63 23.52-1.69 2.97-3.34 5.59-4.89 7.76Zm53.56-2.11c-.79 2.88-2.92 5.65-6.17 8-3.66 2.65-10.58 5.77-22.77 5.52-5.39-.1-9.97-.84-12.11-1.25.27-.55.55-1.09.83-1.63 2.9-5.57 6.17-10.39 9.73-14.33 3.16-3.49 5.96-5.63 7.75-6.81 1.94-1.28 3.15-1.73 3.16-1.74l.08-.03c4.87-2.02 8.85-1.51 11.34-.72 3.15 1 5.79 3.06 7.25 5.67 1.28 2.29 1.6 4.81.92 7.31Z"/><path fill="#fff" d="m50.03 29.25-3.05 3.54-13.3 15.43-5.33 6.19.59-8.15.72-9.9-6.73-7.3-5.53-6.01 8.02 1.52 20.01 3.8 4.59.87Z"/><path fill="#f05b89" d="m31.63 46.47.81-11.07-7.52-8.16 20.01 3.8z"/></svg>